<svg xmlns="http://www.w3.org/2000/svg" width="328" height="430" viewBox="0 0 328 430" version="1.1"><path d="M 160.245 102.800 C 160.024 187.069, 159.841 196.409, 158.357 199.300 C 157.454 201.060, 149.286 215.325, 140.207 231 C 131.128 246.675, 121.026 264.225, 117.758 270 C 114.491 275.775, 110.682 282.300, 109.294 284.500 C 107.153 287.894, 107.962 287.350, 114.635 280.904 C 123.717 272.132, 132.597 266.043, 140.764 262.987 C 147.240 260.563, 156.275 258.691, 158.810 259.247 C 159.739 259.451, 157.428 260.173, 153.674 260.851 C 138.684 263.560, 126.237 270.702, 113.905 283.668 C 106.735 291.207, 98 302.809, 98 304.794 C 98 305.292, 102.285 305.980, 107.523 306.324 C 118.102 307.019, 130.082 308.843, 131.277 309.941 C 131.705 310.333, 128.555 310.085, 124.277 309.388 C 120 308.692, 112 307.817, 106.500 307.445 L 96.500 306.768 94.776 309.745 L 93.051 312.722 101.776 321.640 C 106.574 326.545, 111.313 332.008, 112.307 333.779 C 115.024 338.624, 113.785 337.656, 109.709 331.750 C 106.576 327.210, 97.117 317.951, 93.228 315.618 C 92.338 315.084, 91.184 316.602, 89.385 320.677 C 84.602 331.510, 84.103 332.500, 83.551 332.250 C 82.094 331.589, 81 332.150, 81 333.559 C 81 334.483, 80.530 334.827, 79.845 334.405 C 79.165 333.984, 78.961 334.128, 79.349 334.755 C 80.282 336.265, 79.042 339, 77.424 339 C 76.565 339, 76.298 339.614, 76.701 340.664 C 77.165 341.872, 76.977 342.104, 76.015 341.510 C 75.174 340.990, 74.931 341.079, 75.349 341.755 C 76.282 343.265, 75.042 346, 73.424 346 C 72.676 346, 72.300 346.617, 72.589 347.371 C 72.878 348.125, 72.414 349.443, 71.558 350.300 C 70.701 351.156, 70 352.366, 70 352.988 C 70 353.609, 69.480 353.797, 68.845 353.405 C 68.165 352.984, 67.961 353.128, 68.349 353.755 C 69.282 355.265, 68.042 358, 66.424 358 C 65.565 358, 65.298 358.614, 65.701 359.664 C 66.165 360.872, 65.977 361.104, 65.015 360.510 C 64.174 359.990, 63.931 360.079, 64.349 360.755 C 65.282 362.265, 64.042 365, 62.424 365 C 61.673 365, 61.302 365.623, 61.596 366.390 C 61.889 367.154, 61.055 368.855, 59.741 370.168 C 58.427 371.482, 57.518 373.054, 57.721 373.662 C 57.923 374.270, 57.394 375.463, 56.545 376.313 C 55.695 377.162, 55 378.366, 55 378.988 C 55 379.609, 54.555 379.843, 54.011 379.507 C 53.464 379.169, 53.266 379.531, 53.569 380.319 C 53.869 381.102, 53.414 382.443, 52.558 383.300 C 51.701 384.156, 51 385.366, 51 385.988 C 51 386.609, 50.480 386.797, 49.845 386.405 C 49.165 385.984, 48.961 386.128, 49.349 386.755 C 50.305 388.303, 49.025 391, 47.334 391 C 46.535 391, 46.154 391.441, 46.487 391.979 C 46.820 392.518, 46.606 393.868, 46.011 394.979 C 45.246 396.408, 45.243 397, 46 397 C 46.760 397, 46.760 397.579, 46 399 C 45.411 400.100, 44.285 401, 43.496 401 C 42.609 401, 42.291 401.594, 42.661 402.560 C 43.060 403.600, 42.554 404.304, 41.141 404.673 C 39.976 404.978, 39.250 405.595, 39.528 406.045 C 40.177 407.095, 35.087 414.577, 33.939 414.262 C 33.462 414.131, 33.329 414.694, 33.643 415.512 C 33.962 416.343, 33.615 417.095, 32.857 417.215 C 30.145 417.645, 68.290 418.527, 100.691 418.784 L 133.883 419.047 134.267 414.774 L 134.651 410.500 134.825 414.750 L 135 419 148 419 L 161 419 161.235 307.750 C 161.365 246.563, 161.596 210.499, 161.749 227.609 L 162.028 258.718 167.891 259.331 C 175.126 260.087, 185.163 263.656, 192.620 268.123 C 198.539 271.668, 213 284.488, 213 286.189 C 213 286.734, 209.131 283.560, 204.402 279.136 C 192.471 267.973, 175.825 260, 164.451 260 L 162 260 162 288.500 C 162 304.175, 162.211 317, 162.469 317 C 162.727 317, 167.904 315.613, 173.975 313.919 C 180.046 312.224, 185.532 311.011, 186.168 311.223 C 186.803 311.434, 182.604 312.859, 176.835 314.388 C 171.066 315.917, 165.837 317.483, 165.213 317.868 C 164.585 318.256, 167.416 319.842, 171.565 321.426 C 175.681 322.998, 178.836 324.497, 178.576 324.757 C 178.072 325.261, 175.682 324.495, 167.250 321.127 L 162 319.029 162 369.015 L 162 419 174.943 419 L 187.885 419 188.268 414.750 L 188.651 410.500 188.825 414.913 L 189 419.326 238.675 418.654 C 265.997 418.285, 288.582 417.751, 288.864 417.469 C 289.147 417.186, 286.994 413.525, 284.079 409.333 C 281.165 405.141, 278.693 401.114, 278.586 400.384 C 278.479 399.655, 278.006 398.707, 277.535 398.279 C 277.064 397.850, 277.046 398.132, 277.494 398.905 C 278.060 399.879, 277.935 400.078, 277.086 399.553 C 276.414 399.138, 276.114 398.145, 276.420 397.347 C 276.727 396.549, 276.622 396.115, 276.189 396.383 C 275.755 396.651, 274.816 395.934, 274.101 394.790 C 272.961 392.964, 273.008 392.789, 274.482 393.355 C 275.935 393.912, 275.891 393.559, 274.156 390.750 C 273.053 388.962, 265.089 375.350, 256.460 360.500 C 247.831 345.650, 241.048 334.325, 241.386 335.334 C 241.793 336.547, 241.578 337.026, 240.751 336.750 C 240.063 336.521, 239.493 335.921, 239.485 335.417 C 239.476 334.913, 239.069 333.868, 238.580 333.095 C 237.928 332.065, 238.065 331.885, 239.095 332.420 C 239.868 332.820, 239.667 332.470, 238.650 331.641 C 237.632 330.811, 237.096 329.653, 237.459 329.067 C 237.821 328.480, 237.742 328, 237.282 328 C 236.821 328, 235.171 325.075, 233.613 321.500 C 232.056 317.925, 230.493 315.002, 230.141 315.004 C 229.788 315.007, 226.620 317.578, 223.101 320.717 C 219.582 323.856, 217.224 325.450, 217.861 324.259 C 218.499 323.068, 221.456 320.109, 224.433 317.684 L 229.846 313.275 227.853 309.999 L 225.861 306.724 216.681 307.396 C 211.631 307.765, 203.510 308.751, 198.634 309.585 C 188.975 311.237, 185.552 310.850, 194.171 309.080 C 202.029 307.466, 213.771 306.066, 219.750 306.031 C 222.637 306.014, 225 305.723, 225 305.384 C 225 304.357, 216.127 291.350, 214.510 290.009 C 213.680 289.319, 213 288.305, 213 287.755 C 213 287.199, 213.667 287.309, 214.504 288.004 C 215.332 288.690, 212.407 283.067, 208.004 275.507 C 203.602 267.948, 200 261.356, 200 260.859 C 200 259.330, 205.692 247.308, 206.716 246.676 C 208.528 245.556, 240.716 267.542, 246.177 273.631 C 248.302 275.999, 250.865 293.710, 251.699 311.794 C 252.036 319.105, 252.692 324.708, 253.157 324.243 C 254.203 323.197, 252.469 296.512, 250.606 285 C 249.850 280.325, 249.323 276.393, 249.436 276.263 C 249.998 275.613, 279.882 307.433, 279.848 308.646 C 279.840 308.932, 280.062 309.395, 280.342 309.675 C 281.393 310.726, 280.361 307.140, 279.215 305.759 C 278.556 304.965, 278.351 303.982, 278.759 303.575 C 279.166 303.167, 278.825 302.983, 278 303.167 C 277.088 303.369, 276.552 302.829, 276.632 301.789 C 276.705 300.848, 276.475 300.173, 276.121 300.289 C 275.768 300.405, 269.453 294.425, 262.089 287 L 248.699 273.500 246.819 265 C 245.785 260.325, 243.570 252.349, 241.895 247.275 C 240.221 242.201, 239.179 237.519, 239.580 236.870 C 240.071 236.077, 239.876 235.959, 238.985 236.510 C 238.015 237.109, 237.836 236.868, 238.319 235.612 C 238.681 234.668, 238.571 234.147, 238.074 234.454 C 237.577 234.761, 236.943 234.447, 236.664 233.756 C 236.346 232.967, 236.129 232.920, 236.079 233.631 C 236.036 234.253, 237.158 237.839, 238.574 241.600 C 241.452 249.245, 247.275 271.058, 246.615 271.718 C 246.381 271.953, 243.334 269.821, 239.845 266.981 C 232.935 261.359, 210.256 246, 208.863 246 C 207.308 246, 207.953 243.930, 210.830 239.680 C 214.971 233.563, 215.495 232.576, 214.167 233.397 C 213.540 233.785, 211.597 236.217, 209.851 238.801 C 208.105 241.385, 206.544 243.667, 206.383 243.871 C 206.223 244.075, 203.550 242.808, 200.444 241.056 C 197.339 239.303, 194.632 238.034, 194.430 238.236 C 194.228 238.439, 196.522 239.931, 199.528 241.552 C 202.534 243.173, 204.995 244.787, 204.997 245.138 C 205.002 246.128, 198.801 259.137, 198.484 258.799 C 197.214 257.446, 184.740 235.218, 184.708 234.250 C 184.685 233.563, 184.354 233, 183.973 233 C 183.591 233, 179.090 225.687, 173.970 216.750 C 168.850 207.813, 163.840 199.309, 162.836 197.853 C 161.105 195.344, 160.997 190.374, 160.750 102.353 L 160.490 9.500 160.245 102.800 M 192 82.364 C 192 82.639, 193.350 83.825, 195 85 C 196.650 86.175, 198 86.911, 198 86.636 C 198 86.361, 196.650 85.175, 195 84 C 193.350 82.825, 192 82.089, 192 82.364 M 116.145 92.750 L 108.355 100.500 115.928 93.550 C 120.092 89.727, 123.927 86.240, 124.450 85.800 C 124.973 85.360, 125.071 85, 124.668 85 C 124.265 85, 120.430 88.487, 116.145 92.750 M 206.022 94.623 C 210.135 99.091, 213.762 102.804, 214.083 102.873 C 214.404 102.943, 214.667 102.325, 214.667 101.500 C 214.667 100.675, 214.428 100.238, 214.137 100.530 C 213.845 100.821, 210.218 97.784, 206.075 93.780 L 198.544 86.500 206.022 94.623 M 98.651 133.713 C 104.669 139.686, 113 150.851, 113 152.945 C 113 153.525, 113.352 154, 113.781 154 C 114.211 154, 115.885 156.965, 117.502 160.589 C 119.118 164.213, 120.592 166.725, 120.776 166.171 C 121.197 164.910, 115.736 153.983, 111.695 148 C 106.766 140.701, 101.153 134.283, 96.682 130.835 C 93.481 128.366, 93.943 129.042, 98.651 133.713 M 220.751 134.250 C 217.209 137.688, 212.590 143.106, 210.486 146.292 C 207.745 150.442, 206.213 151.914, 205.081 151.483 C 203.855 151.017, 203.768 151.151, 204.691 152.082 C 205.614 153.012, 205.093 154.851, 202.377 160.244 C 200.449 164.072, 199.078 167.411, 199.330 167.663 C 199.581 167.915, 201.252 164.944, 203.042 161.060 C 204.832 157.177, 206.679 154, 207.148 154 C 207.617 154, 208 153.375, 208 152.610 C 208 150.446, 216.488 139.443, 222.795 133.431 C 225.928 130.444, 228.199 128, 227.841 128 C 227.483 128, 224.292 130.813, 220.751 134.250 M 235.281 140.500 C 237.359 144.662, 244.488 167.228, 246.022 174.500 C 246.718 177.800, 247.469 179.988, 247.690 179.362 C 248.773 176.296, 238.206 141.862, 235.304 139 C 233.942 137.657, 233.940 137.815, 235.281 140.500 M 85 139.892 C 85 140.566, 84.601 140.871, 84.113 140.570 C 83.625 140.268, 83.278 140.579, 83.341 141.261 C 83.405 141.942, 81.772 147.578, 79.712 153.784 C 77.652 159.990, 75.074 168.894, 73.984 173.571 L 72.001 182.073 60.707 193.287 C 50.664 203.258, 40 215.723, 40 217.490 C 40 217.842, 42.709 214.723, 46.019 210.557 C 51.508 203.650, 70.954 183.577, 71.528 184.226 C 71.661 184.377, 71.156 188.311, 70.405 192.969 C 68.389 205.488, 66.669 231.069, 67.769 232.169 C 68.337 232.737, 68.925 227.181, 69.290 217.798 C 70.187 194.705, 75.810 165.691, 82.956 147.289 C 84.597 143.063, 85.728 139.394, 85.470 139.136 C 85.211 138.878, 85 139.218, 85 139.892 M 220 161.350 C 220 161.581, 221.180 162.543, 222.623 163.489 C 224.066 164.434, 224.941 164.713, 224.567 164.109 C 223.854 162.955, 220 160.626, 220 161.350 M 81.236 175.045 C 77.806 177.820, 75 180.309, 75 180.575 C 75 180.841, 77.925 178.715, 81.500 175.850 C 87.336 171.173, 88.587 170, 87.736 170 C 87.590 170, 84.665 172.270, 81.236 175.045 M 233 170.313 C 233 170.560, 234.652 172.023, 236.671 173.563 C 238.690 175.103, 240.027 175.852, 239.641 175.228 C 238.850 173.948, 233 169.619, 233 170.313 M 243 178.500 C 244.292 179.875, 245.574 181, 245.849 181 C 246.124 181, 245.292 179.875, 244 178.500 C 242.708 177.125, 241.426 176, 241.151 176 C 240.876 176, 241.708 177.125, 243 178.500 M 248.120 185.039 C 249.770 192.381, 252 214.342, 252 223.244 C 252 228.060, 252.364 232, 252.808 232 C 254.410 232, 251.250 190.500, 249.241 185.149 C 247.895 181.568, 265.700 199.257, 275.700 211.437 C 278.274 214.572, 278.870 214.925, 278.743 213.237 C 278.656 212.083, 278.310 211.309, 277.973 211.517 C 277.637 211.725, 274.473 208.502, 270.943 204.355 C 265.779 198.289, 248.382 181, 247.442 181 C 247.316 181, 247.621 182.818, 248.120 185.039 M 84 233.892 C 84 234.566, 83.480 234.797, 82.845 234.405 C 82.210 234.012, 81.960 234.126, 82.289 234.659 C 82.618 235.191, 81.842 238.523, 80.565 242.063 C 79.288 245.603, 76.757 254.291, 74.942 261.369 L 71.640 274.238 60.530 285.369 C 48.434 297.488, 41.658 305.147, 41.221 307.192 C 41.067 307.912, 42.617 306.475, 44.664 304 C 50.953 296.400, 72.276 275.377, 71.543 277.500 C 69.102 284.569, 65.867 325.818, 67.849 324.593 C 68.574 324.145, 69 320.663, 69.001 315.191 C 69.002 306.340, 71.382 282.940, 72.834 277.500 C 73.835 273.751, 83.446 265.533, 98.474 255.576 C 115.350 244.395, 113.429 244.590, 117.719 253.623 C 119.735 257.869, 121.548 260.855, 121.748 260.256 C 121.947 259.658, 120.511 255.993, 118.555 252.110 L 115.001 245.051 118 243.500 C 119.650 242.647, 121 241.724, 121 241.449 C 121 241.174, 119.672 241.635, 118.050 242.474 C 116.427 243.313, 114.916 244, 114.691 244 C 114.467 244, 112.640 241.525, 110.631 238.500 C 108.623 235.475, 106.494 233, 105.901 233 C 105.308 233, 106.004 234.404, 107.447 236.120 C 111.004 240.346, 113.505 245.332, 112.274 245.742 C 107.929 247.190, 77.052 269.175, 74.765 272.448 C 72.555 275.613, 76.883 257.497, 81.909 242.543 C 83.565 237.617, 84.713 233.380, 84.460 233.127 C 84.207 232.874, 84 233.218, 84 233.892 M 128.750 236.563 C 125.037 238.469, 122 240.252, 122 240.526 C 122 240.973, 135.900 234.316, 136.917 233.383 C 138.284 232.126, 134.594 233.564, 128.750 236.563 M 133.063 310.363 C 133.373 310.691, 137.984 312.092, 143.311 313.476 C 148.637 314.860, 154.459 316.592, 156.247 317.326 L 159.500 318.660 154.500 320.366 C 149.654 322.020, 143.819 324.893, 145.161 324.965 C 146.676 325.046, 157.617 320.569, 159 319.302 C 160.282 318.127, 160.295 317.801, 159.087 317.054 C 156.288 315.323, 131.803 309.028, 133.063 310.363 M 214.860 328.750 C 211.983 332.223, 210.765 334, 211.259 334 C 211.536 334, 212.964 332.425, 214.432 330.500 C 217.157 326.928, 217.487 325.579, 214.860 328.750 M 201.624 350.539 C 200.659 353.053, 200.943 353.702, 202.122 351.675 C 202.706 350.671, 202.973 349.639, 202.715 349.382 C 202.458 349.124, 201.966 349.645, 201.624 350.539 M 121.031 351.500 C 121.031 352.050, 121.467 353.175, 122 354 C 122.533 354.825, 122.969 355.050, 122.969 354.500 C 122.969 353.950, 122.533 352.825, 122 352 C 121.467 351.175, 121.031 350.950, 121.031 351.500 M 240.500 362 C 241.495 363.100, 242.535 364, 242.810 364 C 243.085 364, 242.495 363.100, 241.500 362 C 240.505 360.900, 239.465 360, 239.190 360 C 238.915 360, 239.505 360.900, 240.500 362 M 74.028 368.466 C 73.359 369.273, 72.966 370.383, 73.155 370.934 C 73.345 371.484, 74.020 370.824, 74.656 369.467 C 75.974 366.654, 75.783 366.351, 74.028 368.466 M 260.711 379.993 C 267.427 386.823, 273.067 392.206, 273.244 391.956 C 273.422 391.705, 267.927 386.117, 261.033 379.537 L 248.500 367.574 260.711 379.993 M 60.477 381.250 L 52.500 389.500 60.750 381.523 C 65.287 377.136, 69 373.424, 69 373.273 C 69 372.544, 67.885 373.588, 60.477 381.250 M 72.158 376 C 72.158 377.375, 72.385 377.938, 72.662 377.250 C 72.940 376.563, 72.940 375.438, 72.662 374.750 C 72.385 374.063, 72.158 374.625, 72.158 376 M 250.158 376 C 250.158 377.375, 250.385 377.938, 250.662 377.250 C 250.940 376.563, 250.940 375.438, 250.662 374.750 C 250.385 374.063, 250.158 374.625, 250.158 376 M 71.195 382.500 C 71.215 384.150, 71.439 384.704, 71.693 383.731 C 71.947 382.758, 71.930 381.408, 71.656 380.731 C 71.382 380.054, 71.175 380.850, 71.195 382.500 M 251.195 382.500 C 251.215 384.150, 251.439 384.704, 251.693 383.731 C 251.947 382.758, 251.930 381.408, 251.656 380.731 C 251.382 380.054, 251.175 380.850, 251.195 382.500 M 131.158 387 C 131.158 388.375, 131.385 388.938, 131.662 388.250 C 131.940 387.563, 131.940 386.438, 131.662 385.750 C 131.385 385.063, 131.158 385.625, 131.158 387 M 70.232 391 C 70.232 392.925, 70.438 393.712, 70.689 392.750 C 70.941 391.788, 70.941 390.212, 70.689 389.250 C 70.438 388.288, 70.232 389.075, 70.232 391 M 252.232 391 C 252.232 392.925, 252.438 393.712, 252.689 392.750 C 252.941 391.788, 252.941 390.212, 252.689 389.250 C 252.438 388.288, 252.232 389.075, 252.232 391 M 190.195 392.500 C 190.215 394.150, 190.439 394.704, 190.693 393.731 C 190.947 392.758, 190.930 391.408, 190.656 390.731 C 190.382 390.054, 190.175 390.850, 190.195 392.500 M 48.924 393.750 L 46.500 396.500 49.250 394.076 C 51.820 391.810, 52.459 391, 51.674 391 C 51.495 391, 50.258 392.238, 48.924 393.750 M 132.158 393 C 132.158 394.375, 132.385 394.938, 132.662 394.250 C 132.940 393.563, 132.940 392.438, 132.662 391.750 C 132.385 391.063, 132.158 391.625, 132.158 393 M 69.320 404 C 69.320 407.575, 69.502 409.038, 69.723 407.250 C 69.945 405.462, 69.945 402.538, 69.723 400.750 C 69.502 398.962, 69.320 400.425, 69.320 404 M 133.252 401.500 C 133.263 403.700, 133.468 404.482, 133.707 403.238 C 133.946 401.994, 133.937 400.194, 133.687 399.238 C 133.437 398.282, 133.241 399.300, 133.252 401.500 M 189.232 401 C 189.232 402.925, 189.438 403.712, 189.689 402.750 C 189.941 401.788, 189.941 400.212, 189.689 399.250 C 189.438 398.288, 189.232 399.075, 189.232 401 M 253.320 404 C 253.320 407.575, 253.502 409.038, 253.723 407.250 C 253.945 405.462, 253.945 402.538, 253.723 400.750 C 253.502 398.962, 253.320 400.425, 253.320 404" stroke="none" fill="#ece6e6" fill-rule="evenodd"/><path d="M 135.500 50.578 C 122.300 73.422, 109.398 96.116, 106.829 101.011 C 104.260 105.905, 100.826 111.846, 99.197 114.213 C 97.569 116.580, 94.154 122.639, 91.609 127.678 C 89.064 132.717, 86.611 136.988, 86.159 137.170 C 85.708 137.351, 75.743 154.150, 64.016 174.500 C 52.289 194.850, 42.086 212.436, 41.344 213.580 C 40.601 214.724, 40.235 215.902, 40.532 216.199 C 40.828 216.495, 38.805 220.027, 36.035 224.047 C 33.266 228.067, 31 231.726, 31 232.178 C 31 232.630, 39.212 232.996, 49.250 232.991 L 67.500 232.981 67.772 222.241 C 68.032 211.993, 70.395 189.639, 71.648 185.586 C 72.927 181.444, 59.527 194.724, 42.978 214 C 41.798 215.375, 42.332 214.273, 44.166 211.550 C 46 208.828, 53.019 201.054, 59.765 194.275 L 72.030 181.951 73.998 173.509 C 76.455 162.972, 82.530 144.327, 84.590 141 C 85.591 139.384, 85.882 139.207, 85.413 140.500 C 74.691 170.083, 69 198.847, 69 223.461 L 69 233 76 233 C 79.850 233, 83 233.190, 83 233.423 C 83 233.656, 73.946 249.518, 62.880 268.673 C 51.814 287.828, 42.547 303.950, 42.286 304.500 C 42.026 305.050, 43.499 303.475, 45.561 301 C 47.623 298.525, 54.377 291.449, 60.570 285.276 C 68.711 277.160, 72.026 273.145, 72.540 270.776 C 75.567 256.812, 83.490 232.157, 84.596 233.263 C 84.774 233.441, 83.565 237.617, 81.909 242.543 C 76.883 257.497, 72.555 275.613, 74.765 272.448 C 77.052 269.175, 107.929 247.190, 112.274 245.742 C 113.505 245.332, 111.004 240.346, 107.447 236.120 C 106.004 234.404, 105.308 233, 105.901 233 C 106.494 233, 108.623 235.475, 110.631 238.500 C 112.640 241.525, 114.467 244, 114.691 244 C 114.916 244, 116.427 243.313, 118.050 242.474 C 119.672 241.635, 121 241.174, 121 241.449 C 121 241.724, 119.650 242.647, 118 243.500 L 115.001 245.051 118.555 252.110 C 120.511 255.993, 121.947 259.658, 121.748 260.256 C 121.548 260.855, 119.735 257.869, 117.719 253.623 C 113.429 244.590, 115.350 244.395, 98.474 255.576 C 83.446 265.533, 73.835 273.751, 72.834 277.500 C 71.338 283.103, 69.002 306.460, 69.001 315.823 L 69 325.147 77.502 324.823 C 84.522 324.556, 86.012 324.761, 86.048 326 C 86.072 326.825, 87.409 324.653, 89.019 321.174 C 91.076 316.728, 92.325 315.076, 93.223 315.615 C 97.117 317.951, 106.574 327.207, 109.709 331.750 C 113.785 337.656, 115.024 338.624, 112.307 333.779 C 111.313 332.008, 106.574 326.545, 101.776 321.640 L 93.051 312.722 94.776 309.745 L 96.500 306.768 106.500 307.445 C 112 307.817, 120 308.692, 124.277 309.388 C 128.555 310.085, 131.705 310.333, 131.277 309.941 C 130.082 308.843, 118.102 307.019, 107.523 306.324 C 102.285 305.980, 98 305.292, 98 304.794 C 98 302.809, 106.735 291.207, 113.905 283.668 C 126.237 270.702, 138.684 263.560, 153.674 260.851 C 157.428 260.173, 159.739 259.451, 158.810 259.247 C 156.275 258.691, 147.240 260.563, 140.764 262.987 C 132.597 266.043, 123.717 272.132, 114.635 280.904 C 107.962 287.350, 107.153 287.894, 109.294 284.500 C 110.682 282.300, 114.491 275.775, 117.758 270 C 121.026 264.225, 131.128 246.675, 140.207 231 C 149.286 215.325, 157.454 201.060, 158.357 199.300 C 159.841 196.409, 160.024 187.069, 160.245 102.800 L 160.490 9.500 160.750 102.353 C 160.997 190.374, 161.105 195.344, 162.836 197.853 C 163.840 199.309, 168.850 207.813, 173.970 216.750 C 179.090 225.688, 183.591 233, 183.973 233 C 184.354 233, 184.685 233.563, 184.708 234.250 C 184.740 235.218, 197.214 257.446, 198.484 258.799 C 198.801 259.137, 205.002 246.128, 204.997 245.138 C 204.995 244.787, 202.534 243.173, 199.528 241.552 C 196.522 239.931, 194.228 238.439, 194.430 238.236 C 194.632 238.034, 197.339 239.303, 200.444 241.056 C 203.550 242.808, 206.223 244.075, 206.383 243.871 C 206.544 243.667, 208.105 241.385, 209.851 238.801 C 211.597 236.217, 213.540 233.785, 214.167 233.397 C 215.495 232.576, 214.971 233.563, 210.830 239.680 C 207.953 243.930, 207.308 246, 208.863 246 C 210.256 246, 232.935 261.359, 239.845 266.981 C 243.334 269.821, 246.381 271.953, 246.615 271.718 C 247.275 271.058, 241.452 249.245, 238.574 241.600 C 235.939 234.599, 235.234 231.078, 237.115 234.312 C 239.097 237.721, 244.107 253.492, 246.437 263.660 L 248.764 273.820 259.232 284.160 C 264.990 289.847, 272.053 297.200, 274.930 300.500 L 280.159 306.500 276.673 301 C 272.219 293.972, 239.196 236.676, 238.392 234.579 C 237.874 233.229, 238.851 233, 245.143 233 L 252.500 233.001 251.813 218.750 C 251.184 205.698, 248.536 183.677, 247.368 181.787 C 246.167 179.844, 248.247 181.541, 256.086 188.898 C 264.307 196.615, 277.672 211.529, 279.334 214.839 C 279.792 215.753, 278.442 214.487, 276.334 212.026 C 262.548 195.939, 248.198 181.853, 249.332 185.522 C 250.505 189.318, 253 212.496, 253 219.595 C 253 223.530, 253.281 228.156, 253.625 229.875 L 254.250 233 272.125 233 C 281.956 233, 290 232.741, 290 232.425 C 290 232.109, 287.875 228.621, 285.278 224.675 C 282.680 220.729, 280.494 216.759, 280.419 215.853 C 280.344 214.947, 279.391 212.922, 278.302 211.353 C 275.609 207.476, 241.912 148.810, 238.609 142.250 C 237.156 139.363, 235.811 137, 235.622 137 C 235.433 137, 236.827 141.124, 238.721 146.165 C 242.668 156.673, 248.327 177.551, 247.706 179.313 C 247.476 179.966, 246.718 177.800, 246.022 174.500 C 243.623 163.127, 236.794 143.469, 231.066 131.444 C 223.900 116.402, 216.973 106.070, 206.674 95.064 L 198.660 86.500 207.330 95.111 C 212.099 99.847, 216 103.647, 216 103.555 C 216 103.464, 213.188 98.635, 209.750 92.826 C 206.313 87.017, 194.050 65.797, 182.500 45.672 C 170.950 25.546, 161.050 9.072, 160.500 9.062 C 159.950 9.053, 148.700 27.735, 135.500 50.578 M 192 82.364 C 192 82.639, 193.350 83.825, 195 85 C 196.650 86.175, 198 86.911, 198 86.636 C 198 86.361, 196.650 85.175, 195 84 C 193.350 82.825, 192 82.089, 192 82.364 M 116.145 92.750 L 108.355 100.500 115.928 93.550 C 120.092 89.727, 123.927 86.240, 124.450 85.800 C 124.973 85.360, 125.071 85, 124.668 85 C 124.265 85, 120.430 88.487, 116.145 92.750 M 98.651 133.713 C 104.669 139.686, 113 150.851, 113 152.945 C 113 153.525, 113.352 154, 113.781 154 C 114.211 154, 115.885 156.965, 117.502 160.589 C 119.118 164.213, 120.592 166.725, 120.776 166.171 C 121.197 164.910, 115.736 153.983, 111.695 148 C 106.766 140.701, 101.153 134.283, 96.682 130.835 C 93.481 128.366, 93.943 129.042, 98.651 133.713 M 220.751 134.250 C 217.209 137.688, 212.590 143.106, 210.486 146.292 C 207.745 150.442, 206.213 151.914, 205.081 151.483 C 203.855 151.017, 203.768 151.151, 204.691 152.082 C 205.614 153.012, 205.093 154.851, 202.377 160.244 C 200.449 164.072, 199.078 167.411, 199.330 167.663 C 199.581 167.915, 201.252 164.944, 203.042 161.060 C 204.832 157.177, 206.679 154, 207.148 154 C 207.617 154, 208 153.375, 208 152.610 C 208 150.446, 216.488 139.443, 222.795 133.431 C 225.928 130.444, 228.199 128, 227.841 128 C 227.483 128, 224.292 130.813, 220.751 134.250 M 220 161.350 C 220 161.581, 221.180 162.543, 222.623 163.489 C 224.066 164.434, 224.941 164.713, 224.567 164.109 C 223.854 162.955, 220 160.626, 220 161.350 M 81.236 175.045 C 77.806 177.820, 75 180.309, 75 180.575 C 75 180.841, 77.925 178.715, 81.500 175.850 C 87.336 171.173, 88.587 170, 87.736 170 C 87.590 170, 84.665 172.270, 81.236 175.045 M 233 170.313 C 233 170.560, 234.652 172.023, 236.671 173.563 C 238.690 175.103, 240.027 175.852, 239.641 175.228 C 238.850 173.948, 233 169.619, 233 170.313 M 243 178.500 C 244.292 179.875, 245.574 181, 245.849 181 C 246.124 181, 245.292 179.875, 244 178.500 C 242.708 177.125, 241.426 176, 241.151 176 C 240.876 176, 241.708 177.125, 243 178.500 M 161.471 308 C 161.472 376.458, 161.671 400.145, 161.986 369.361 L 162.500 319.223 169.880 322.152 C 173.938 323.762, 177.725 324.925, 178.294 324.735 C 178.863 324.546, 175.898 323.080, 171.705 321.479 C 167.483 319.868, 164.586 318.256, 165.213 317.868 C 165.837 317.483, 171.066 315.917, 176.835 314.388 C 182.604 312.859, 186.803 311.434, 186.168 311.223 C 185.532 311.011, 180.046 312.224, 173.975 313.919 C 167.904 315.613, 162.727 317, 162.469 317 C 162.211 317, 162 304.175, 162 288.500 L 162 260 164.451 260 C 170.017 260, 178.048 262.419, 186.997 266.793 C 195.104 270.755, 197.892 272.829, 206.050 280.967 C 214.011 288.910, 225 303.068, 225 305.384 C 225 305.723, 222.637 306.014, 219.750 306.031 C 213.771 306.066, 202.029 307.466, 194.171 309.080 C 185.552 310.850, 188.975 311.237, 198.634 309.585 C 203.510 308.751, 211.631 307.765, 216.681 307.396 L 225.861 306.724 227.853 309.999 L 229.846 313.275 224.433 317.684 C 221.456 320.109, 218.499 323.068, 217.861 324.259 C 217.224 325.450, 219.582 323.856, 223.101 320.717 C 226.620 317.578, 229.761 315.007, 230.079 315.004 C 230.398 315.002, 231.712 317.250, 233 320 L 235.342 325 243.825 325 L 252.308 325 251.697 311.750 C 250.864 293.706, 248.300 275.997, 246.177 273.631 C 240.716 267.542, 208.528 245.556, 206.716 246.676 C 205.692 247.308, 200 259.330, 200 260.859 C 200 261.356, 203.512 267.779, 207.804 275.131 L 215.607 288.500 207.041 280 C 194.619 267.674, 181.514 260.755, 167.891 259.331 L 162.028 258.718 161.749 227.609 C 161.596 210.499, 161.471 246.675, 161.471 308 M 128.750 236.563 C 125.037 238.469, 122 240.252, 122 240.526 C 122 240.973, 135.900 234.316, 136.917 233.383 C 138.284 232.126, 134.594 233.564, 128.750 236.563 M 60.412 287.250 C 54.332 293.438, 47.842 300.300, 45.990 302.500 C 44.137 304.700, 42.145 306.500, 41.562 306.500 C 40.980 306.500, 40.496 307.175, 40.489 308 C 40.481 308.825, 38.343 312.729, 35.737 316.675 C 33.132 320.621, 31 324.109, 31 324.425 C 31 324.741, 39.036 325, 48.858 325 L 66.717 325 67.415 312.750 C 68.158 299.729, 70.401 280.660, 71.533 277.750 C 71.908 276.788, 72.046 276, 71.841 276 C 71.635 276, 66.493 281.063, 60.412 287.250 M 249.421 277.500 C 250.438 281.423, 253 303.187, 253 307.905 C 253 310.546, 253.289 315.473, 253.642 318.853 L 254.285 325 272.241 325 L 290.198 325 288.001 321.250 C 282.450 311.776, 273.471 300.625, 261.701 288.589 C 254.662 281.390, 249.136 276.400, 249.421 277.500 M 133.063 310.363 C 133.373 310.691, 137.984 312.092, 143.311 313.476 C 148.637 314.860, 154.459 316.592, 156.247 317.326 L 159.500 318.660 154.500 320.366 C 149.654 322.020, 143.819 324.893, 145.161 324.965 C 146.676 325.046, 157.617 320.569, 159 319.302 C 160.282 318.127, 160.295 317.801, 159.087 317.054 C 156.288 315.323, 131.803 309.028, 133.063 310.363 M 214.860 328.750 C 211.983 332.223, 210.765 334, 211.259 334 C 211.536 334, 212.964 332.425, 214.432 330.500 C 217.157 326.928, 217.487 325.579, 214.860 328.750 M 78 337 C 77.411 338.100, 77.155 339, 77.430 339 C 77.705 339, 78.411 338.100, 79 337 C 79.589 335.900, 79.845 335, 79.570 335 C 79.295 335, 78.589 335.900, 78 337 M 74 344 C 73.411 345.100, 73.155 346, 73.430 346 C 73.705 346, 74.411 345.100, 75 344 C 75.589 342.900, 75.845 342, 75.570 342 C 75.295 342, 74.589 342.900, 74 344 M 71 349 C 70.411 350.100, 70.155 351, 70.430 351 C 70.705 351, 71.411 350.100, 72 349 C 72.589 347.900, 72.845 347, 72.570 347 C 72.295 347, 71.589 347.900, 71 349 M 201.624 350.539 C 200.659 353.053, 200.943 353.702, 202.122 351.675 C 202.706 350.671, 202.973 349.639, 202.715 349.382 C 202.458 349.124, 201.966 349.645, 201.624 350.539 M 121.031 351.500 C 121.031 352.050, 121.467 353.175, 122 354 C 122.533 354.825, 122.969 355.050, 122.969 354.500 C 122.969 353.950, 122.533 352.825, 122 352 C 121.467 351.175, 121.031 350.950, 121.031 351.500 M 67 356 C 66.411 357.100, 66.155 358, 66.430 358 C 66.705 358, 67.411 357.100, 68 356 C 68.589 354.900, 68.845 354, 68.570 354 C 68.295 354, 67.589 354.900, 67 356 M 240.500 362 C 241.495 363.100, 242.535 364, 242.810 364 C 243.085 364, 242.495 363.100, 241.500 362 C 240.505 360.900, 239.465 360, 239.190 360 C 238.915 360, 239.505 360.900, 240.500 362 M 63 363 C 62.411 364.100, 62.155 365, 62.430 365 C 62.705 365, 63.411 364.100, 64 363 C 64.589 361.900, 64.845 361, 64.570 361 C 64.295 361, 63.589 361.900, 63 363 M 60 368 C 59.411 369.100, 59.155 370, 59.430 370 C 59.705 370, 60.411 369.100, 61 368 C 61.589 366.900, 61.845 366, 61.570 366 C 61.295 366, 60.589 366.900, 60 368 M 74.028 368.466 C 73.359 369.273, 72.966 370.383, 73.155 370.934 C 73.345 371.484, 74.020 370.824, 74.656 369.467 C 75.974 366.654, 75.783 366.351, 74.028 368.466 M 260.500 380 C 267.083 386.600, 272.694 392, 272.969 392 C 273.244 392, 268.083 386.600, 261.500 380 C 254.917 373.400, 249.306 368, 249.031 368 C 248.756 368, 253.917 373.400, 260.500 380 M 56 375 C 55.411 376.100, 55.155 377, 55.430 377 C 55.705 377, 56.411 376.100, 57 375 C 57.589 373.900, 57.845 373, 57.570 373 C 57.295 373, 56.589 373.900, 56 375 M 60.477 381.250 L 52.500 389.500 60.750 381.523 C 65.287 377.136, 69 373.424, 69 373.273 C 69 372.544, 67.885 373.588, 60.477 381.250 M 72.158 376 C 72.158 377.375, 72.385 377.938, 72.662 377.250 C 72.940 376.563, 72.940 375.438, 72.662 374.750 C 72.385 374.063, 72.158 374.625, 72.158 376 M 250.158 376 C 250.158 377.375, 250.385 377.938, 250.662 377.250 C 250.940 376.563, 250.940 375.438, 250.662 374.750 C 250.385 374.063, 250.158 374.625, 250.158 376 M 52 382 C 51.411 383.100, 51.155 384, 51.430 384 C 51.705 384, 52.411 383.100, 53 382 C 53.589 380.900, 53.845 380, 53.570 380 C 53.295 380, 52.589 380.900, 52 382 M 71.195 382.500 C 71.215 384.150, 71.439 384.704, 71.693 383.731 C 71.947 382.758, 71.930 381.408, 71.656 380.731 C 71.382 380.054, 71.175 380.850, 71.195 382.500 M 251.195 382.500 C 251.215 384.150, 251.439 384.704, 251.693 383.731 C 251.947 382.758, 251.930 381.408, 251.656 380.731 C 251.382 380.054, 251.175 380.850, 251.195 382.500 M 131.158 387 C 131.158 388.375, 131.385 388.938, 131.662 388.250 C 131.940 387.563, 131.940 386.438, 131.662 385.750 C 131.385 385.063, 131.158 385.625, 131.158 387 M 48 389 C 47.411 390.100, 47.155 391, 47.430 391 C 47.705 391, 48.411 390.100, 49 389 C 49.589 387.900, 49.845 387, 49.570 387 C 49.295 387, 48.589 387.900, 48 389 M 70.232 391 C 70.232 392.925, 70.438 393.712, 70.689 392.750 C 70.941 391.788, 70.941 390.212, 70.689 389.250 C 70.438 388.288, 70.232 389.075, 70.232 391 M 252.232 391 C 252.232 392.925, 252.438 393.712, 252.689 392.750 C 252.941 391.788, 252.941 390.212, 252.689 389.250 C 252.438 388.288, 252.232 389.075, 252.232 391 M 190.195 392.500 C 190.215 394.150, 190.439 394.704, 190.693 393.731 C 190.947 392.758, 190.930 391.408, 190.656 390.731 C 190.382 390.054, 190.175 390.850, 190.195 392.500 M 48.924 393.750 L 46.500 396.500 49.250 394.076 C 51.820 391.810, 52.459 391, 51.674 391 C 51.495 391, 50.258 392.238, 48.924 393.750 M 132.158 393 C 132.158 394.375, 132.385 394.938, 132.662 394.250 C 132.940 393.563, 132.940 392.438, 132.662 391.750 C 132.385 391.063, 132.158 391.625, 132.158 393 M 45 394 C 44.411 395.100, 44.155 396, 44.430 396 C 44.705 396, 45.411 395.100, 46 394 C 46.589 392.900, 46.845 392, 46.570 392 C 46.295 392, 45.589 392.900, 45 394 M 44.405 399.250 L 42.500 401.500 44.750 399.595 C 46.864 397.805, 47.455 397, 46.655 397 C 46.465 397, 45.453 398.012, 44.405 399.250 M 69.320 404 C 69.320 407.575, 69.502 409.038, 69.723 407.250 C 69.945 405.462, 69.945 402.538, 69.723 400.750 C 69.502 398.962, 69.320 400.425, 69.320 404 M 133.252 401.500 C 133.263 403.700, 133.468 404.482, 133.707 403.238 C 133.946 401.994, 133.937 400.194, 133.687 399.238 C 133.437 398.282, 133.241 399.300, 133.252 401.500 M 189.232 401 C 189.232 402.925, 189.438 403.712, 189.689 402.750 C 189.941 401.788, 189.941 400.212, 189.689 399.250 C 189.438 398.288, 189.232 399.075, 189.232 401 M 253.320 404 C 253.320 407.575, 253.502 409.038, 253.723 407.250 C 253.945 405.462, 253.945 402.538, 253.723 400.750 C 253.502 398.962, 253.320 400.425, 253.320 404 M 37.232 408.750 C 34.643 412.489, 33.802 414, 34.308 414 C 34.542 414, 35.925 412.200, 37.381 410 C 40.340 405.529, 40.211 404.448, 37.232 408.750 M 134.272 415 C 134.272 417.475, 134.467 418.488, 134.706 417.250 C 134.944 416.012, 134.944 413.988, 134.706 412.750 C 134.467 411.512, 134.272 412.525, 134.272 415 M 188.272 415 C 188.272 417.475, 188.467 418.488, 188.706 417.250 C 188.944 416.012, 188.944 413.988, 188.706 412.750 C 188.467 411.512, 188.272 412.525, 188.272 415" stroke="none" fill="#3d1212" fill-rule="evenodd"/></svg>